<?xml version="1.0" encoding="utf-8"?>
<!-- Generator: Adobe Illustrator 23.1.0, SVG Export Plug-In . SVG Version: 6.00 Build 0)  -->
<svg version="1.1" id="Layer_1" xmlns="http://www.w3.org/2000/svg" xmlns:xlink="http://www.w3.org/1999/xlink" x="0px" y="0px"
	 viewBox="0 0 213.78 55.99" style="enable-background:new 0 0 213.78 55.99;" xml:space="preserve">
<style type="text/css">
	.st0{fill:#212721;}
</style>
<g>
	<g>
		<g>
			<g>
				<path class="st0" d="M36.67,19.24c-1.45-1.7-3.22-3.09-5.29-4.16c-2.8-1.45-5.94-2.19-9.33-2.19c-3.92,0-7.62,0.95-10.98,2.81
					C7.71,17.58,5,20.18,3.01,23.43C1.01,26.7,0,30.38,0,34.37c0,4.03,0.99,7.73,2.93,11c1.95,3.27,4.64,5.88,8,7.77
					c3.36,1.89,7.1,2.85,11.13,2.85c3.34,0,6.46-0.73,9.26-2.19c2.08-1.08,3.87-2.47,5.36-4.16v5.41h6.79V13.9h-6.79V19.24z
					 M34.98,26.87c1.31,2.35,1.98,4.93,1.98,7.64c0,2.76-0.68,5.33-2.01,7.63c-1.33,2.3-3.15,4.16-5.42,5.52
					c-2.25,1.35-4.77,2.04-7.47,2.04c-2.86,0-5.49-0.67-7.82-1.98c-2.33-1.31-4.17-3.14-5.47-5.44c-1.31-2.3-1.98-4.9-1.98-7.71
					c0-2.9,0.68-5.56,2.01-7.89c1.33-2.32,3.17-4.18,5.48-5.51c2.31-1.33,4.9-2.01,7.7-2.01c2.76,0,5.31,0.7,7.59,2.07
					C31.85,22.63,33.67,24.52,34.98,26.87z"/>
				<path class="st0" d="M79.95,15.32c-2.82-1.61-6.17-2.42-9.95-2.42c-2.74,0-5.3,0.56-7.6,1.68c-1.57,0.75-3.17,1.9-4.25,3.01
					V13.9h-6.79v41.15h6.79V31.85c0-3.7,1.26-6.78,3.39-9.15c2.13-2.37,4.92-3.52,8.53-3.52c2.19,0,4.2,0.52,5.98,1.54
					c1.78,1.02,3.15,2.47,4.17,4.43c1.01,1.95,1.53,4.33,1.53,7.06v22.85h6.76V32.21c0-3.76-0.55-7.14-2.03-10.04
					C84.97,19.24,82.78,16.94,79.95,15.32z"/>
				<path class="st0" d="M131.33,19.21c-1.53-1.71-3.38-3.11-5.51-4.18c-2.85-1.42-5.91-2.14-9.11-2.14
					c-3.93,0-7.62,0.95-10.98,2.81c-3.37,1.87-6.08,4.47-8.06,7.73c-2,3.27-3.01,6.95-3.01,10.94c0,4.03,0.99,7.73,2.93,11
					c1.95,3.26,4.64,5.88,8,7.77c3.36,1.89,7.1,2.85,11.13,2.85c3.25,0,6.32-0.72,9.15-2.15c2.11-1.07,3.95-2.48,5.47-4.21v5.42
					h6.79V0h-6.79V19.21z M116.65,19.18c2.75,0,5.3,0.7,7.58,2.07c2.28,1.38,4.1,3.27,5.42,5.62c1.31,2.36,1.98,4.93,1.98,7.65
					c0,2.76-0.68,5.33-2.01,7.63c-1.33,2.3-3.15,4.16-5.41,5.52c-2.26,1.35-4.77,2.04-7.48,2.04c-2.9,0-5.55-0.68-7.85-2.01
					c-2.31-1.33-4.14-3.17-5.44-5.44c-1.31-2.28-1.98-4.86-1.98-7.67c0-2.91,0.67-5.56,1.98-7.89c1.3-2.32,3.13-4.17,5.44-5.51
					C111.18,19.85,113.79,19.18,116.65,19.18z"/>
				<path class="st0" d="M180.95,19.24c-1.45-1.7-3.22-3.09-5.29-4.16c-2.8-1.45-5.94-2.19-9.33-2.19c-3.93,0-7.62,0.95-10.98,2.81
					c-3.37,1.87-6.08,4.47-8.07,7.73c-2,3.27-3.01,6.95-3.01,10.94c0,4.03,0.99,7.73,2.93,11c1.95,3.26,4.64,5.88,8,7.77
					c3.36,1.89,7.1,2.85,11.13,2.85c3.34,0,6.46-0.73,9.26-2.19c2.08-1.08,3.87-2.47,5.36-4.16v5.41h6.79V13.9h-6.79V19.24z
					 M179.26,26.87c1.32,2.35,1.98,4.93,1.98,7.64c0,2.76-0.68,5.33-2.01,7.63c-1.33,2.3-3.15,4.16-5.42,5.52
					c-2.25,1.35-4.76,2.04-7.47,2.04c-2.86,0-5.49-0.67-7.82-1.98c-2.33-1.31-4.17-3.14-5.47-5.44c-1.31-2.3-1.98-4.9-1.98-7.71
					c0-2.9,0.68-5.56,2.01-7.89c1.33-2.32,3.17-4.18,5.48-5.51c2.31-1.33,4.9-2.01,7.7-2.01c2.76,0,5.31,0.7,7.59,2.07
					C176.13,22.63,177.95,24.52,179.26,26.87z"/>
			</g>
			<g>
				<path class="st0" d="M202.42,18.86V13.9h-6.79v41.15h6.79V32.59c0-3.94,0.93-7.02,2.79-9.1c1.84-2.06,4.87-3.16,8.56-3.16v-7.29
					C208.73,13.05,204.86,14.68,202.42,18.86z"/>
			</g>
		</g>
	</g>
</g>
</svg>
