<svg width="207" height="214" viewBox="0 0 207 214" fill="none" xmlns="http://www.w3.org/2000/svg">
<path d="M207 199.587H0V206.349H207V199.587Z" fill="url(#paint0_linear_68_1691)"/>
<path d="M207 192.003H0V198.765H207V192.003Z" fill="url(#paint1_linear_68_1691)"/>
<path d="M207 184.429H0V191.191H207V184.429Z" fill="url(#paint2_linear_68_1691)"/>
<path d="M207 172.885H0V179.647H207V172.885Z" fill="url(#paint3_linear_68_1691)"/>
<path d="M207 152.685H0V159.447H207V152.685Z" fill="url(#paint4_linear_68_1691)"/>
<path d="M207 112.333H0V119.095H207V112.333Z" fill="url(#paint5_linear_68_1691)"/>
<path d="M207 59.9824H0V66.7448H207V59.9824Z" fill="url(#paint6_linear_68_1691)"/>
<path d="M207 0H0V6.76237H207V0Z" fill="url(#paint7_linear_68_1691)"/>
<path d="M207 207.237H0V214H207V207.237Z" fill="url(#paint8_linear_68_1691)"/>
<defs>
<linearGradient id="paint0_linear_68_1691" x1="0" y1="107" x2="207" y2="107" gradientUnits="userSpaceOnUse">
<stop stop-color="#F6C300"/>
<stop offset="0.55" stop-color="#DF3F32"/>
<stop offset="1" stop-color="#AB3B82"/>
</linearGradient>
<linearGradient id="paint1_linear_68_1691" x1="0" y1="107" x2="207" y2="107" gradientUnits="userSpaceOnUse">
<stop stop-color="#F6C300"/>
<stop offset="0.55" stop-color="#DF3F32"/>
<stop offset="1" stop-color="#AB3B82"/>
</linearGradient>
<linearGradient id="paint2_linear_68_1691" x1="0" y1="107" x2="207" y2="107" gradientUnits="userSpaceOnUse">
<stop stop-color="#F6C300"/>
<stop offset="0.55" stop-color="#DF3F32"/>
<stop offset="1" stop-color="#AB3B82"/>
</linearGradient>
<linearGradient id="paint3_linear_68_1691" x1="0" y1="107" x2="207" y2="107" gradientUnits="userSpaceOnUse">
<stop stop-color="#F6C300"/>
<stop offset="0.55" stop-color="#DF3F32"/>
<stop offset="1" stop-color="#AB3B82"/>
</linearGradient>
<linearGradient id="paint4_linear_68_1691" x1="0" y1="107" x2="207" y2="107" gradientUnits="userSpaceOnUse">
<stop stop-color="#F6C300"/>
<stop offset="0.55" stop-color="#DF3F32"/>
<stop offset="1" stop-color="#AB3B82"/>
</linearGradient>
<linearGradient id="paint5_linear_68_1691" x1="0" y1="107" x2="207" y2="107" gradientUnits="userSpaceOnUse">
<stop stop-color="#F6C300"/>
<stop offset="0.55" stop-color="#DF3F32"/>
<stop offset="1" stop-color="#AB3B82"/>
</linearGradient>
<linearGradient id="paint6_linear_68_1691" x1="0" y1="107" x2="207" y2="107" gradientUnits="userSpaceOnUse">
<stop stop-color="#F6C300"/>
<stop offset="0.55" stop-color="#DF3F32"/>
<stop offset="1" stop-color="#AB3B82"/>
</linearGradient>
<linearGradient id="paint7_linear_68_1691" x1="0" y1="107" x2="207" y2="107" gradientUnits="userSpaceOnUse">
<stop stop-color="#F6C300"/>
<stop offset="0.55" stop-color="#DF3F32"/>
<stop offset="1" stop-color="#AB3B82"/>
</linearGradient>
<linearGradient id="paint8_linear_68_1691" x1="0" y1="107" x2="207" y2="107" gradientUnits="userSpaceOnUse">
<stop stop-color="#F6C300"/>
<stop offset="0.55" stop-color="#DF3F32"/>
<stop offset="1" stop-color="#AB3B82"/>
</linearGradient>
</defs>
</svg>
