<svg width="207" height="208" viewBox="0 0 207 208" fill="none" xmlns="http://www.w3.org/2000/svg">
<path d="M36.7548 73.5293C16.4909 73.5293 0 57.0414 0 36.7695C0 16.4975 16.4909 0 36.7548 0C57.0186 0 73.5095 16.4879 73.5095 36.7695C73.5095 57.0511 57.0186 73.539 36.7548 73.539V73.5293ZM36.7548 6.75732C20.2156 6.75732 6.75461 20.2237 6.75461 36.7695C6.75461 53.3153 20.2156 66.7816 36.7548 66.7816C53.2939 66.7816 66.7549 53.3153 66.7549 36.7695C66.7549 20.2237 53.2939 6.75732 36.7548 6.75732Z" fill="url(#paint0_linear_68_1701)"/>
<path d="M103.5 73.5293C83.236 73.5293 66.7451 57.0414 66.7451 36.7598C66.7451 16.4782 83.236 0 103.5 0C123.764 0 140.255 16.4879 140.255 36.7695C140.255 57.0511 123.764 73.539 103.5 73.539V73.5293ZM103.5 6.75732C86.9607 6.75732 73.4997 20.2237 73.4997 36.7695C73.4997 53.3153 86.9607 66.7816 103.5 66.7816C120.039 66.7816 133.5 53.3153 133.5 36.7695C133.5 20.2237 120.039 6.75732 103.5 6.75732V6.75732Z" fill="url(#paint1_linear_68_1701)"/>
<path d="M170.245 73.5293C149.981 73.5293 133.49 57.0414 133.49 36.7598C133.49 16.4782 149.981 0 170.245 0C190.509 0 207 16.4879 207 36.7695C207 57.0511 190.509 73.539 170.245 73.539V73.5293ZM170.245 6.75732C153.706 6.75732 140.245 20.2237 140.245 36.7695C140.245 53.3153 153.706 66.7816 170.245 66.7816C186.784 66.7816 200.245 53.3153 200.245 36.7695C200.245 20.2237 186.784 6.75732 170.245 6.75732V6.75732Z" fill="url(#paint2_linear_68_1701)"/>
<path d="M36.7548 140.765C16.4909 140.765 0 124.277 0 104.005C0 83.7329 16.4909 67.2354 36.7548 67.2354C57.0186 67.2354 73.5095 83.7329 73.5095 104.005C73.5095 124.277 57.0186 140.774 36.7548 140.774V140.765ZM36.7548 73.9927C20.2156 73.9927 6.75461 87.459 6.75461 104.005C6.75461 120.551 20.2156 134.017 36.7548 134.017C53.2939 134.017 66.7549 120.551 66.7549 104.005C66.7549 87.459 53.2939 73.9927 36.7548 73.9927V73.9927Z" fill="url(#paint3_linear_68_1701)"/>
<path d="M103.5 140.765C83.236 140.765 66.7451 124.277 66.7451 103.995C66.7451 83.7135 83.236 67.2256 103.5 67.2256C123.764 67.2256 140.255 83.7231 140.255 103.995C140.255 124.267 123.764 140.765 103.5 140.765V140.765ZM103.5 73.9926C86.9607 73.9926 73.4997 87.4589 73.4997 104.005C73.4997 120.551 86.9607 134.017 103.5 134.017C120.039 134.017 133.5 120.551 133.5 104.005C133.5 87.4589 120.039 73.9926 103.5 73.9926V73.9926Z" fill="url(#paint4_linear_68_1701)"/>
<path d="M170.245 140.765C149.981 140.765 133.49 124.277 133.49 103.995C133.49 83.7135 149.981 67.2256 170.245 67.2256C190.509 67.2256 207 83.7231 207 103.995C207 124.267 190.509 140.765 170.245 140.765ZM170.245 73.9926C153.706 73.9926 140.245 87.4589 140.245 104.005C140.245 120.551 153.706 134.017 170.245 134.017C186.784 134.017 200.245 120.551 200.245 104.005C200.245 87.4589 186.784 73.9926 170.245 73.9926V73.9926Z" fill="url(#paint5_linear_68_1701)"/>
<path d="M36.7548 208C16.4909 208 0 191.502 0 171.23C0 150.958 16.4909 134.461 36.7548 134.461C57.0186 134.461 73.5095 150.949 73.5095 171.23C73.5095 191.512 57.0186 208 36.7548 208ZM36.7548 141.228C20.2156 141.228 6.75461 154.694 6.75461 171.24C6.75461 187.786 20.2156 201.252 36.7548 201.252C53.2939 201.252 66.7549 187.786 66.7549 171.24C66.7549 154.694 53.2939 141.228 36.7548 141.228Z" fill="url(#paint6_linear_68_1701)"/>
<path d="M103.5 208C83.236 208 66.7451 191.502 66.7451 171.23C66.7451 150.958 83.236 134.461 103.5 134.461C123.764 134.461 140.255 150.949 140.255 171.23C140.255 191.512 123.764 208 103.5 208V208ZM103.5 141.228C86.9607 141.228 73.4997 154.694 73.4997 171.24C73.4997 187.786 86.9607 201.252 103.5 201.252C120.039 201.252 133.5 187.786 133.5 171.24C133.5 154.694 120.039 141.228 103.5 141.228V141.228Z" fill="url(#paint7_linear_68_1701)"/>
<path d="M170.245 208C149.981 208 133.49 191.502 133.49 171.23C133.49 150.958 149.981 134.461 170.245 134.461C190.509 134.461 207 150.949 207 171.23C207 191.512 190.509 208 170.245 208ZM170.245 141.228C153.706 141.228 140.245 154.694 140.245 171.24C140.245 187.786 153.706 201.252 170.245 201.252C186.784 201.252 200.245 187.786 200.245 171.24C200.245 154.694 186.784 141.228 170.245 141.228Z" fill="url(#paint8_linear_68_1701)"/>
<defs>
<linearGradient id="paint0_linear_68_1701" x1="0" y1="104.005" x2="207" y2="104.005" gradientUnits="userSpaceOnUse">
<stop stop-color="#008980"/>
<stop offset="1" stop-color="#F6C300"/>
</linearGradient>
<linearGradient id="paint1_linear_68_1701" x1="-0.000141708" y1="104.005" x2="207" y2="104.005" gradientUnits="userSpaceOnUse">
<stop stop-color="#008980"/>
<stop offset="1" stop-color="#F6C300"/>
</linearGradient>
<linearGradient id="paint2_linear_68_1701" x1="-0.000283416" y1="104.005" x2="207" y2="104.005" gradientUnits="userSpaceOnUse">
<stop stop-color="#008980"/>
<stop offset="1" stop-color="#F6C300"/>
</linearGradient>
<linearGradient id="paint3_linear_68_1701" x1="0" y1="104.005" x2="207" y2="104.005" gradientUnits="userSpaceOnUse">
<stop stop-color="#008980"/>
<stop offset="1" stop-color="#F6C300"/>
</linearGradient>
<linearGradient id="paint4_linear_68_1701" x1="-0.000141708" y1="104.005" x2="207" y2="104.005" gradientUnits="userSpaceOnUse">
<stop stop-color="#008980"/>
<stop offset="1" stop-color="#F6C300"/>
</linearGradient>
<linearGradient id="paint5_linear_68_1701" x1="-0.000283416" y1="104.005" x2="207" y2="104.005" gradientUnits="userSpaceOnUse">
<stop stop-color="#008980"/>
<stop offset="1" stop-color="#F6C300"/>
</linearGradient>
<linearGradient id="paint6_linear_68_1701" x1="0" y1="104.005" x2="207" y2="104.005" gradientUnits="userSpaceOnUse">
<stop stop-color="#008980"/>
<stop offset="1" stop-color="#F6C300"/>
</linearGradient>
<linearGradient id="paint7_linear_68_1701" x1="-0.000141708" y1="104.005" x2="207" y2="104.005" gradientUnits="userSpaceOnUse">
<stop stop-color="#008980"/>
<stop offset="1" stop-color="#F6C300"/>
</linearGradient>
<linearGradient id="paint8_linear_68_1701" x1="-0.000283416" y1="104.005" x2="207" y2="104.005" gradientUnits="userSpaceOnUse">
<stop stop-color="#008980"/>
<stop offset="1" stop-color="#F6C300"/>
</linearGradient>
</defs>
</svg>
