<svg xmlns="http://www.w3.org/2000/svg" width="74.741" height="19" viewBox="0 0 74.741 19">
  <path id="leeum-index-logo" d="M15543.078,24316h-.216c-5.139,0-6.024-4.434-6.024-6.332V24298h3.48v11.549s0,.086,0,.119a2.659,2.659,0,1,0,5.316,0c0-.033,0-.086,0-.119V24298h3.479v11.668c0,1.9-.887,6.332-6.021,6.332Zm22.4-.385v-9.389l-3.927,9.232h-1.969s-3.883-9.266-3.883-9.336.014,9.492,0,9.492h-3.23V24298h3.49l4.643,11.7,4.688-11.7h3.447v17.615Zm-42.658,0V24298h10.582l-.331,3.127h-6.963v3.912h6.431l-.312,3.424h-6.118v3.742h7.346l-.378,3.406Zm-14.357,0V24298h10.583l-.33,3.127h-6.963v3.912h6.43l-.314,3.424h-6.115v3.742h7.344l-.377,3.406Zm-13.467,0V24298h3.289v14.209h7.017l-.283,3.406Z" transform="translate(-15494.498 -24297.498)" fill="#fff" stroke="rgba(0,0,0,0)" stroke-miterlimit="10" stroke-width="1"/>
</svg>
