<svg width="88" height="88" viewBox="0 0 88 88" fill="none" xmlns="http://www.w3.org/2000/svg">
<path d="M44.0146 54.0912V33.5787" stroke="white" stroke-width="0.67" stroke-miterlimit="10"/>
<path d="M54.2665 43.8398H33.7539" stroke="white" stroke-width="0.67" stroke-miterlimit="10"/>
<path d="M51.2671 51.0829L36.7617 36.5871" stroke="white" stroke-width="0.67" stroke-miterlimit="10"/>
<path d="M51.2671 36.5871L36.7617 51.0829" stroke="white" stroke-width="0.67" stroke-miterlimit="10"/>
<path d="M53.4909 39.9116L34.54 47.7583" stroke="white" stroke-width="0.67" stroke-miterlimit="10"/>
<path d="M40.0869 34.3643L47.9432 53.3152" stroke="white" stroke-width="0.67" stroke-miterlimit="10"/>
<path d="M47.9432 34.3643L40.0869 53.3152" stroke="white" stroke-width="0.67" stroke-miterlimit="10"/>
<path d="M34.54 39.9116L53.4909 47.7583" stroke="white" stroke-width="0.67" stroke-miterlimit="10"/>
<path d="M50.5679 2.74755C50.4721 1.77988 49.8876 0.869704 48.508 0.725991C47.4062 0.611021 46.3331 1.25294 46.2277 2.32599C46.1415 3.15952 46.6014 3.78228 47.5116 4.09845L48.8816 4.56791C50.2709 5.04695 51.0661 5.96671 50.9319 7.2697C50.7882 8.67809 49.4756 9.7224 47.6265 9.53078C45.605 9.32 44.6277 7.8733 44.6182 6.45533L45.4038 6.29246C45.4038 7.49964 46.1798 8.63976 47.7032 8.79306C49.1116 8.93677 50.0122 8.24695 50.1176 7.25054C50.2038 6.39785 49.6768 5.71761 48.6517 5.36312L47.3008 4.89366C46.1032 4.48168 45.2888 3.60982 45.423 2.30683C45.5667 0.879285 47.0613 -0.145865 48.5751 0.0170092C50.4529 0.208626 51.2002 1.38707 51.3343 2.57509L50.587 2.75713L50.5679 2.74755Z" fill="white"/>
<path d="M53.739 5.54516C54.812 2.65174 57.5138 1.83737 59.6408 2.623C61.5857 3.34157 62.5533 4.96073 62.3425 6.76192H61.5569C61.739 5.20983 60.9437 3.90683 59.3821 3.33198C57.6096 2.68049 55.4443 3.36073 54.5246 5.84216C53.6144 8.30444 54.812 10.2398 56.5845 10.8913C58.2036 11.4949 59.6791 10.9296 60.5318 9.70324L61.1162 10.1919C60.1006 11.6577 58.2707 12.3188 56.3258 11.6002C54.1797 10.805 52.6755 8.44815 53.7485 5.55474L53.739 5.54516Z" fill="white"/>
<path d="M66.3185 12.2613L64.7472 11.15L62.4478 14.417L61.7676 13.938L67.0849 6.38828L69.7101 8.23738C71.061 9.18588 71.3005 10.7571 70.4382 11.9739C69.6622 13.0661 68.34 13.3919 67.0849 12.7308L66.6251 17.3583L65.8394 16.8026L66.3185 12.2517V12.2613ZM67.0083 11.8398C68.0047 12.5488 69.1065 12.4146 69.7484 11.4949C70.3999 10.5655 70.17 9.48289 69.164 8.7739L67.3245 7.48049L65.1688 10.5464L67.0083 11.8398Z" fill="white"/>
<path d="M77.9503 15.7296C79.397 17.4733 79.5216 20.2996 77.1455 22.2637C74.7695 24.2278 72.0293 23.5763 70.5826 21.8326C69.1359 20.0889 69.0114 17.2817 71.3874 15.3176C73.7635 13.3535 76.5036 13.9859 77.9503 15.7296ZM71.1575 21.3535C72.3647 22.8098 74.5778 23.2984 76.609 21.6218C78.6401 19.9356 78.5731 17.6649 77.3659 16.2086C76.1587 14.7523 73.9551 14.2733 71.9144 15.9499C69.8928 17.6266 69.9503 19.8877 71.1575 21.344V21.3535Z" fill="white"/>
<path d="M74.4814 27.1499L82.8455 23.241L83.2 23.9979L75.5162 27.5907L77.4898 31.8158L76.8096 32.132L74.4814 27.1499Z" fill="white"/>
<path d="M77.2881 33.8374L86.2845 31.7679L86.4761 32.5823L78.2174 34.4889L79.2617 39.0302L78.524 39.2026L77.2881 33.8469V33.8374Z" fill="white"/>
<path d="M78.8309 44.405L87.9998 45.4206L87.6836 48.2757C87.4249 50.6038 85.6046 52.4625 82.5962 52.1272C79.5974 51.7919 78.2561 49.5595 78.5147 47.2314L78.8309 44.3955V44.405ZM79.2429 47.2889C79.0321 49.1955 80.1243 51.0062 82.692 51.2841C85.2692 51.5715 86.7543 50.0673 86.965 48.1703L87.1854 46.1487L79.4632 45.2961L79.2429 47.2889Z" fill="white"/>
<path d="M84.6854 60.8362C83.8135 62.9248 81.3704 64.3523 78.5153 63.1547C75.6602 61.9571 74.9704 59.2266 75.8518 57.138C76.7237 55.0494 79.1572 53.6314 82.0027 54.829C84.8483 56.017 85.5572 58.7476 84.6854 60.8362ZM76.5513 57.435C75.8231 59.1787 76.4171 61.3727 78.8411 62.3883C81.2842 63.4134 83.2578 62.2925 83.986 60.5488C84.7141 58.805 84.1201 56.6206 81.677 55.605C79.253 54.5895 77.2794 55.7009 76.5417 57.4446L76.5513 57.435Z" fill="white"/>
<path d="M73.3315 76.932L72.7662 77.5643L67.6309 69.4398L68.2249 68.7691L76.0333 72.2565L71.6548 64.908L72.2297 64.2661L80.9291 68.3859L80.3542 69.0278L72.8045 65.3679L77.1446 72.6398L76.5506 73.3104L68.8093 69.8613L73.341 76.9224L73.3315 76.932Z" fill="white"/>
<path d="M58.7782 75.332L67.698 79.6817L63.6261 72.5631L64.3447 72.1511L68.9243 80.1607L67.9279 80.726L59.4009 76.5296L63.3099 83.3703L62.5914 83.7823L58.0117 75.7727L58.7782 75.332Z" fill="white"/>
<path d="M52.2732 82.0098C51.89 82.0961 51.5355 81.8469 51.4493 81.4829C51.3726 81.1092 51.6025 80.7547 51.9858 80.6781C52.3594 80.6014 52.7139 80.8314 52.7906 81.1955C52.8672 81.5691 52.6469 81.9332 52.2732 82.0098Z" fill="white"/>
<path d="M39.2241 85.1619C39.3582 86.12 39.9905 87.011 41.3606 87.0877C42.4624 87.1547 43.5067 86.4745 43.5738 85.3919C43.6217 84.5583 43.133 83.9547 42.2133 83.6769L40.8336 83.2649C39.4253 82.8434 38.5917 81.9619 38.6684 80.6589C38.7546 79.241 40.0193 78.1488 41.8779 78.2541C43.9091 78.3787 44.9438 79.7775 45.0109 81.1955L44.2253 81.3967C44.1773 80.1895 43.3438 79.0877 41.83 79.0014C40.4121 78.9152 39.5498 79.6434 39.4923 80.6493C39.4444 81.5116 40.0001 82.1631 41.0444 82.4793L42.4145 82.8913C43.6312 83.2553 44.4839 84.0793 44.4073 85.3919C44.3211 86.8194 42.8744 87.9116 41.351 87.8158C39.4636 87.7008 38.6779 86.5607 38.4863 85.3727L39.2336 85.1523L39.2241 85.1619Z" fill="white"/>
<path d="M35.9089 82.4984C34.9604 85.4302 32.2969 86.3595 30.1412 85.6697C28.1676 85.0278 27.1424 83.4565 27.267 81.6458L28.0526 81.6266C27.9376 83.1787 28.7808 84.4338 30.3712 84.9511C32.1628 85.5356 34.2993 84.7595 35.1137 82.2493C35.9185 79.7487 34.6442 77.8709 32.843 77.2865C31.1951 76.7499 29.7484 77.3823 28.9436 78.6374L28.34 78.1679C29.2981 76.6541 31.0897 75.926 33.073 76.5679C35.2478 77.2769 36.8478 79.5667 35.8993 82.4984H35.9089Z" fill="white"/>
<path d="M23.0801 76.338L24.6992 77.3823L26.8549 74.0194L27.5543 74.4697L22.5723 82.2302L19.8705 80.4961C18.4813 79.605 18.1747 78.0529 18.9795 76.7978C19.7076 75.6673 21.0106 75.2937 22.2944 75.8973L22.5531 71.2505L23.3675 71.7679L23.0801 76.3284V76.338ZM22.4094 76.7883C21.3843 76.1272 20.292 76.3092 19.6885 77.2481C19.0753 78.1967 19.3627 79.2793 20.3879 79.9404L22.2849 81.1571L24.3064 78.005L22.4094 76.7883Z" fill="white"/>
<path d="M11.3152 73.3679C9.8014 71.6913 9.5523 68.8745 11.8421 66.805C14.1319 64.7356 16.9008 65.2721 18.4146 66.9583C19.9379 68.635 20.1775 71.4326 17.8876 73.5021C15.5978 75.5715 12.8289 75.0541 11.3152 73.3679ZM17.8589 67.4565C16.5942 66.0577 14.3523 65.6553 12.4074 67.4182C10.4433 69.1907 10.6158 71.4613 11.8804 72.8601C13.1451 74.2589 15.3775 74.6517 17.3415 72.8793C19.296 71.1164 19.1331 68.8553 17.8685 67.4565H17.8589Z" fill="white"/>
<path d="M14.2946 61.823L6.10296 66.0961L5.71973 65.3583L13.2407 61.4398L11.085 57.3008L11.7557 56.9559L14.2946 61.8326V61.823Z" fill="white"/>
<path d="M11.1905 55.241L2.29946 57.6937L2.0791 56.8889L10.242 54.6374L9.00605 50.144L9.73419 49.9428L11.2001 55.2314L11.1905 55.241Z" fill="white"/>
<path d="M9.20719 44.7595L0 44.1272L0.201198 41.2625C0.364072 38.9248 2.0982 36.999 5.12575 37.2098C8.13413 37.4206 9.57126 39.5859 9.40838 41.9236L9.21677 44.7691L9.20719 44.7595ZM8.67066 41.8949C8.80479 39.9883 7.63593 38.2254 5.05868 38.0434C2.47186 37.8613 1.05389 39.423 0.91976 41.3296L0.776048 43.3511L8.52695 43.8877L8.66108 41.8853L8.67066 41.8949Z" fill="white"/>
<path d="M2.65392 28.5966C3.43955 26.4697 5.81559 24.9463 8.71859 26.0098C11.612 27.0733 12.4264 29.7751 11.6407 31.902C10.8551 34.029 8.49823 35.5428 5.59524 34.4793C2.70182 33.4158 1.86829 30.7236 2.65392 28.5966ZM10.9318 31.6434C11.5833 29.8709 10.903 27.7056 8.43116 26.7955C5.94973 25.8853 4.02398 27.0829 3.37248 28.8553C2.72098 30.6278 3.4108 32.7835 5.89224 33.6937C8.3641 34.6038 10.2898 33.4062 10.9413 31.6338L10.9318 31.6434Z" fill="white"/>
<path d="M13.3179 12.0314L13.8544 11.3799L19.3251 19.2745L18.7598 19.9739L10.8173 16.8218L15.5023 23.9691L14.9562 24.6302L6.10352 20.8841L6.64962 20.223L14.343 23.5571L9.70591 16.4769L10.2712 15.7775L18.1466 18.8913L13.3275 12.0314H13.3179Z" fill="white"/>
<path d="M27.9381 12.9895L18.8459 9.01342L23.2148 15.9595L22.5058 16.4002L17.5908 8.58228L18.5585 7.96911L27.2579 11.8014L23.0615 5.13318L23.7705 4.69246L28.6854 12.5104L27.9381 12.9799V12.9895Z" fill="white"/>
<path d="M34.1271 6.04336C34.5008 5.94755 34.8744 6.16791 34.9702 6.54156C35.066 6.91521 34.8553 7.26971 34.472 7.37509C34.108 7.4709 33.7439 7.26012 33.6481 6.88647C33.5523 6.5224 33.763 6.13917 34.1271 6.04336Z" fill="white"/>
</svg>
