<svg width="215" height="239" viewBox="0 0 215 239" fill="none" xmlns="http://www.w3.org/2000/svg">
<path d="M107.26 238.25L103.79 213.01C100.38 188.16 88.07 165.32 69.13 148.67C50.02 131.88 25.47 122.62 0 122.62V115.62C25.47 115.62 50.02 106.37 69.13 89.57C88.07 72.93 100.37 50.08 103.79 25.23L107.26 0L110.73 25.24C114.14 50.08 126.45 72.93 145.39 89.58C164.5 106.38 189.05 115.63 214.52 115.63V122.63C189.05 122.63 164.5 131.88 145.39 148.68C126.45 165.32 114.15 188.17 110.73 213.02L107.26 238.26V238.25ZM27.77 119.12C44.68 123.45 60.45 131.72 73.75 143.41C89.76 157.48 101.33 175.72 107.25 195.88C113.17 175.72 124.74 157.48 140.75 143.41C154.05 131.72 169.82 123.45 186.73 119.12C169.82 114.79 154.05 106.52 140.75 94.83C124.74 80.76 113.17 62.52 107.25 42.36C101.33 62.52 89.76 80.75 73.75 94.83C60.45 106.52 44.68 114.79 27.77 119.12V119.12Z" fill="url(#paint0_linear_68_1711)"/>
<defs>
<linearGradient id="paint0_linear_68_1711" x1="0" y1="119.13" x2="214.52" y2="119.13" gradientUnits="userSpaceOnUse">
<stop stop-color="#C1C1D3"/>
<stop offset="0.53" stop-color="#3F32AA"/>
<stop offset="1" stop-color="#D6D8D9"/>
</linearGradient>
</defs>
</svg>
